<svg data-v-423bf9ae="" xmlns="http://www.w3.org/2000/svg" viewBox="0 0 2287 2708" class="iconLeft"><!----><!----><!----><g data-v-423bf9ae="" id="4912bf09-56dd-4af8-8e95-3d7d23b33ac4" fill="white" transform="matrix(2.040816307067871,0,0,2.040816307067871,2137.260498046875,1329.435791015625)"><path d="M12.60 0.15L12.60 0.15Q13.08 0.15 13.41 0.13Q13.75 0.11 13.97 0.08L13.97 0.08Q14.22 0.06 14.41 0.01L14.41 0.01L14.41 0.15L13.86 0.29Q13.71 0.63 13.52 1.27Q13.33 1.92 13.11 2.77Q12.89 3.61 12.66 4.62Q12.42 5.63 12.17 6.68Q11.91 7.74 11.65 8.81Q11.40 9.87 11.14 10.84Q10.88 11.80 10.62 12.62Q10.36 13.44 10.11 14.01L10.11 14.01Q9.73 13.16 9.35 11.97Q8.97 10.78 8.62 9.44Q8.26 8.11 7.94 6.74Q7.62 5.38 7.35 4.17L7.35 4.17Q7.21 4.77 7 5.65Q6.79 6.52 6.54 7.52Q6.30 8.51 6.04 9.53Q5.78 10.56 5.54 11.45Q5.31 12.33 5.09 13.01Q4.87 13.68 4.73 13.97L4.73 13.97Q4.59 13.75 4.39 13.11Q4.19 12.47 3.93 11.56Q3.68 10.65 3.40 9.54Q3.11 8.43 2.81 7.27Q2.51 6.12 2.21 4.99Q1.90 3.86 1.62 2.91Q1.34 1.96 1.10 1.25Q0.85 0.55 0.67 0.24L0.67 0.24L0 0.15L0 0.01Q0.20 0.06 0.45 0.08L0.45 0.08Q0.67 0.11 0.99 0.13Q1.30 0.15 1.71 0.15L1.71 0.15Q2.17 0.15 2.55 0.13Q2.93 0.11 3.21 0.08L3.21 0.08Q3.53 0.06 3.79 0.01L3.79 0.01L3.79 0.15L2.90 0.29Q2.90 0.49 2.97 0.96Q3.04 1.43 3.16 2.08Q3.29 2.73 3.46 3.52Q3.63 4.31 3.81 5.14Q4.00 5.98 4.21 6.82Q4.41 7.66 4.60 8.40Q4.79 9.14 4.96 9.74Q5.14 10.35 5.28 10.72L5.28 10.72Q5.39 10.57 5.55 10.07Q5.71 9.56 5.89 8.86Q6.08 8.16 6.26 7.34Q6.44 6.52 6.61 5.73Q6.78 4.94 6.91 4.27Q7.04 3.60 7.13 3.18L7.13 3.18Q6.86 2.02 6.65 1.24Q6.44 0.46 6.27 0.29L6.27 0.29L5.74 0.15L5.74 0.01Q5.89 0.06 6.12 0.08L6.12 0.08Q6.31 0.11 6.59 0.13Q6.87 0.15 7.27 0.15L7.27 0.15Q7.67 0.15 7.99 0.13Q8.30 0.11 8.53 0.08L8.53 0.08Q8.78 0.06 8.99 0.01L8.99 0.01L8.99 0.15L8.34 0.29Q8.33 0.71 8.41 1.37Q8.48 2.02 8.61 2.79Q8.74 3.57 8.91 4.45Q9.09 5.32 9.28 6.19Q9.48 7.06 9.68 7.88Q9.88 8.69 10.07 9.37Q10.26 10.05 10.42 10.54Q10.58 11.03 10.70 11.26L10.70 11.26Q10.82 10.72 10.98 9.79Q11.14 8.86 11.31 7.76Q11.48 6.66 11.63 5.49Q11.77 4.31 11.87 3.28Q11.97 2.24 11.98 1.44Q12.00 0.64 11.91 0.29L11.91 0.29L11.02 0.15L11.02 0.01Q11.27 0.06 11.54 0.08L11.54 0.08Q11.77 0.11 12.05 0.13Q12.32 0.15 12.60 0.15ZM15.27 9.66L15.27 9.66Q15.27 10.08 15.44 10.59Q15.60 11.10 15.97 11.54Q16.35 11.98 16.96 12.29Q17.57 12.59 18.45 12.59L18.45 12.59Q18.91 12.59 19.18 12.46Q19.45 12.33 19.57 12.14Q19.70 11.96 19.73 11.75Q19.77 11.54 19.77 11.35L19.77 11.35Q19.77 10.75 19.54 10.16Q19.31 9.58 18.90 9.11Q18.49 8.65 17.94 8.37Q17.39 8.09 16.74 8.09L16.74 8.09Q16.32 8.09 16.04 8.25Q15.76 8.41 15.59 8.66Q15.41 8.90 15.34 9.18Q15.27 9.45 15.27 9.66ZM18.35 7L18.35 7Q18.77 7 19.26 7.18Q19.74 7.36 20.15 7.73Q20.57 8.09 20.83 8.66Q21.10 9.23 21.10 9.98L21.10 9.98Q21.10 10.42 20.90 10.88Q20.69 11.34 20.36 11.79Q20.03 12.24 19.61 12.63Q19.18 13.03 18.73 13.34Q18.27 13.64 17.82 13.82Q17.36 14 16.98 14L16.98 14Q16.41 14 15.88 13.76Q15.36 13.52 14.95 13.12Q14.55 12.71 14.30 12.19Q14.06 11.66 14.06 11.07L14.06 11.07Q14.06 10.28 14.49 9.54Q14.92 8.81 15.57 8.24Q16.21 7.67 16.96 7.34Q17.71 7 18.35 7ZM22.74 6.99L22.74 6.99Q22.74 5.42 22.74 4.28Q22.74 3.14 22.72 2.32Q22.71 1.50 22.65 0.95Q22.60 0.41 22.50 0.01L22.50 0.01Q23.46 0.01 24.13-0.34Q24.79-0.70 25.35-1.18L25.35-1.18Q25.07-0.77 24.88-0.45Q24.68-0.13 24.61 0.10L24.61 0.10Q24.46 0.59 24.37 1.33Q24.29 2.07 24.25 2.98Q24.21 3.89 24.20 4.91Q24.19 5.94 24.19 6.99L24.19 6.99Q24.19 8.05 24.15 8.79Q24.11 9.52 24.09 10.04Q24.07 10.57 24.09 10.93Q24.11 11.28 24.23 11.59L24.23 11.59Q24.33 11.79 24.44 11.97Q24.56 12.15 24.71 12.31Q24.86 12.47 25.06 12.58Q25.26 12.68 25.52 12.70L25.52 12.70Q24.99 13.08 24.58 13.40Q24.16 13.72 23.83 14.04L23.83 14.04Q23.56 13.90 23.35 13.69Q23.14 13.47 23.00 13.23Q22.85 12.99 22.76 12.75Q22.67 12.52 22.64 12.33L22.64 12.33Q22.61 11.80 22.62 11.30Q22.64 10.79 22.67 10.19Q22.69 9.59 22.71 8.82Q22.74 8.05 22.74 6.99ZM33.28-2.79L33.28-2.79Q33.73-2.79 34.01-2.71Q34.29-2.63 34.45-2.58L34.45-2.58Q34.23-2.30 33.96-1.90Q33.70-1.51 33.64-1.12L33.64-1.12Q33.47-1.27 33.22-1.41L33.22-1.41Q33.00-1.53 32.64-1.62Q32.28-1.71 31.77-1.71L31.77-1.71Q31.05-1.71 30.58-1.58Q30.10-1.44 29.81-1.22Q29.51-0.99 29.36-0.72Q29.20-0.45 29.15-0.17L29.15-0.17Q29.09 0.03 29.04 0.58Q28.98 1.13 28.93 1.88Q28.88 2.63 28.84 3.50Q28.80 4.37 28.77 5.19Q28.74 6.02 28.74 6.72Q28.74 7.42 28.78 7.84L28.78 7.84Q29.22 8.01 29.72 8.06Q30.23 8.12 30.65 8.12L30.65 8.12Q31.14 8.12 31.63 8.06L31.63 8.06Q31.15 8.25 30.66 8.40L30.66 8.40Q30.24 8.53 29.74 8.64Q29.25 8.75 28.78 8.78L28.78 8.78Q28.78 9.20 28.77 10.19Q28.76 11.19 28.73 12.52Q28.70 13.85 28.66 15.41Q28.63 16.97 28.60 18.54L28.60 18.54Q28.53 22.22 28.43 26.61L28.43 26.61Q28.27 22.04 28.14 18.28L28.14 18.28Q28.10 17.22 28.06 16.16Q28.03 15.09 27.99 14.11Q27.96 13.12 27.93 12.24Q27.90 11.35 27.89 10.65Q27.87 9.95 27.86 9.46Q27.85 8.97 27.85 8.78L27.85 8.78Q27.59 8.78 27.31 8.71Q27.03 8.65 26.80 8.57L26.80 8.57Q26.52 8.47 26.25 8.34L26.25 8.34Q26.54 8.37 26.82 8.33L26.82 8.33Q27.06 8.30 27.34 8.22Q27.62 8.15 27.85 7.98L27.85 7.98Q27.83 7.50 27.79 6.85Q27.75 6.20 27.70 5.45Q27.65 4.70 27.59 3.91Q27.54 3.11 27.49 2.35Q27.44 1.58 27.40 0.90Q27.36 0.21 27.34-0.32L27.34-0.32Q27.52-0.32 27.71-0.39Q27.90-0.46 28.14-0.61Q28.38-0.76 28.69-0.99Q29.01-1.22 29.44-1.55L29.44-1.55Q30.31-2.21 31.25-2.50Q32.19-2.79 33.28-2.79ZM34.93 10.86L34.93 10.86Q34.66 10.86 34.28 10.81Q33.89 10.75 33.54 10.58Q33.18 10.40 32.93 10.08Q32.68 9.76 32.68 9.23L32.68 9.23Q32.68 8.81 32.89 8.48Q33.11 8.15 33.45 7.90Q33.78 7.64 34.20 7.48Q34.62 7.31 35.01 7.20Q35.41 7.08 35.73 7.04Q36.06 6.99 36.23 6.99L36.23 6.99Q36.36 6.99 36.55 6.99Q36.74 7 36.92 7.02Q37.11 7.04 37.29 7.06Q37.46 7.08 37.55 7.13L37.55 7.13Q37.49 7.31 37.43 7.54Q37.37 7.77 37.31 8.02Q37.25 8.26 37.22 8.50Q37.18 8.75 37.18 8.96L37.18 8.96Q37.09 8.75 36.92 8.50Q36.75 8.26 36.52 8.04Q36.29 7.83 35.99 7.69Q35.70 7.55 35.35 7.55L35.35 7.55Q35.08 7.55 34.88 7.63Q34.68 7.71 34.53 7.85Q34.38 7.99 34.31 8.16Q34.23 8.32 34.23 8.47L34.23 8.47Q34.23 8.79 34.38 9.04Q34.54 9.28 34.79 9.45Q35.04 9.62 35.37 9.70Q35.70 9.79 36.05 9.79L36.05 9.79Q36.62 9.79 37.04 9.90Q37.45 10.01 37.71 10.19Q37.97 10.37 38.09 10.61Q38.21 10.84 38.21 11.06L38.21 11.06Q38.21 11.80 37.79 12.36Q37.38 12.91 36.78 13.27Q36.19 13.64 35.54 13.82Q34.89 14 34.41 14L34.41 14Q33.70 14 33.14 13.82Q32.58 13.64 32.35 13.44L32.35 13.44Q32.51 13.20 32.62 12.77Q32.73 12.33 32.77 11.76L32.77 11.76Q32.96 12.11 33.26 12.40Q33.57 12.68 33.95 12.88Q34.33 13.08 34.76 13.19Q35.18 13.30 35.63 13.30L35.63 13.30Q35.78 13.30 35.98 13.26Q36.18 13.22 36.34 13.12Q36.51 13.02 36.63 12.85Q36.75 12.68 36.75 12.42L36.75 12.42Q36.75 12.17 36.62 11.89Q36.50 11.62 36.26 11.39Q36.02 11.16 35.69 11.01Q35.35 10.86 34.93 10.86ZM44.45 6.93L44.45 6.93Q44.88 6.93 45.33 7.12Q45.78 7.31 46.13 7.67Q46.48 8.04 46.70 8.55Q46.93 9.07 46.93 9.72L46.93 9.72Q46.93 10.19 46.71 10.70Q46.49 11.20 46.12 11.68Q45.74 12.17 45.25 12.59Q44.76 13.01 44.21 13.33Q43.67 13.65 43.10 13.83Q42.53 14.01 42.01 14.01L42.01 14.01Q41.22 14.01 40.62 13.80Q40.03 13.59 39.75 13.36L39.75 13.36Q39.86 13.12 39.89 12.48Q39.93 11.84 39.92 10.97Q39.91 10.09 39.89 9.06Q39.87 8.02 39.87 6.97L39.87 6.97Q39.87 4.84 39.80 3.04Q39.72 1.23 39.61 0.01L39.61 0.01Q40.49 0.01 41.10-0.20Q41.72-0.42 42.18-0.74L42.18-0.74Q42.03-0.46 41.92-0.25Q41.80-0.03 41.73 0.15L41.73 0.15Q41.57 0.62 41.48 1.34Q41.40 2.07 41.36 2.97Q41.31 3.86 41.31 4.89Q41.30 5.91 41.30 6.97L41.30 6.97Q41.30 9.06 41.38 10.29Q41.45 11.52 41.48 12.12L41.48 12.12Q42.55 12.63 43.27 12.71Q43.99 12.78 44.44 12.56Q44.88 12.35 45.08 11.89Q45.28 11.44 45.28 10.85L45.28 10.85Q45.28 10.16 45.06 9.67Q44.84 9.17 44.50 8.84Q44.16 8.51 43.74 8.36Q43.32 8.20 42.91 8.20L42.91 8.20Q42.62 8.20 42.37 8.27Q42.13 8.33 41.93 8.40L41.93 8.40Q41.71 8.48 41.52 8.58L41.52 8.58Q42.03 8.12 42.55 7.76L42.55 7.76Q42.99 7.45 43.50 7.19Q44.00 6.93 44.45 6.93ZM54.50 9.52L54.50 9.52Q54.61 9.79 54.82 10.30Q55.03 10.82 55.27 11.35Q55.50 11.89 55.72 12.29Q55.94 12.70 56.10 12.73L56.10 12.73Q55.68 12.96 55.22 13.30Q54.77 13.64 54.43 14L54.43 14Q54.36 13.69 54.18 13.14Q54.00 12.59 53.69 11.93L53.69 11.93Q53.42 12.19 53.02 12.55Q52.61 12.91 52.15 13.23Q51.69 13.55 51.19 13.78Q50.69 14 50.25 14L50.25 14Q49.92 14 49.58 13.91Q49.24 13.82 48.96 13.64Q48.68 13.47 48.50 13.22Q48.33 12.96 48.33 12.64L48.33 12.64Q48.33 12.25 48.73 11.80Q49.14 11.35 49.74 10.91Q50.34 10.47 51.04 10.05Q51.74 9.63 52.33 9.27L52.33 9.27Q51.90 8.72 51.51 8.48Q51.13 8.23 50.67 8.23L50.67 8.23Q50.47 8.23 50.16 8.34Q49.84 8.46 49.55 8.60L49.55 8.60Q49.18 8.75 48.82 8.95L48.82 8.95Q49.60 8.41 50.33 7.98L50.33 7.98Q50.64 7.80 50.96 7.63Q51.28 7.46 51.58 7.32Q51.88 7.18 52.14 7.10Q52.40 7.01 52.58 7.01L52.58 7.01Q52.93 7.01 53.23 7.31Q53.54 7.62 53.78 8.03Q54.03 8.44 54.20 8.86Q54.38 9.28 54.50 9.52ZM51.76 12.64L51.76 12.64Q52.09 12.64 52.40 12.54Q52.71 12.45 52.94 12.26Q53.17 12.08 53.31 11.83Q53.45 11.58 53.45 11.28L53.45 11.28Q53.34 11.10 53.21 10.88Q53.09 10.67 52.98 10.47L52.98 10.47Q52.86 10.22 52.75 9.99Q52.63 9.76 52.50 9.60L52.50 9.60Q52.19 9.72 51.75 9.92Q51.31 10.12 50.90 10.39Q50.50 10.67 50.21 10.99Q49.92 11.31 49.92 11.66L49.92 11.66Q49.92 11.86 50.07 12.03Q50.22 12.21 50.46 12.34Q50.71 12.47 51.04 12.56Q51.38 12.64 51.76 12.64ZM64.90 10.01L64.90 10.01Q64.90 11.00 64.58 11.75Q64.25 12.50 63.85 13.01L63.85 13.01Q63.39 13.59 62.80 14.01L62.80 14.01Q63.03 13.66 63.21 13.24L63.21 13.24Q63.36 12.88 63.49 12.42Q63.62 11.96 63.62 11.44L63.62 11.44Q63.62 10.81 63.36 10.22Q63.11 9.63 62.69 9.18Q62.27 8.72 61.72 8.44Q61.17 8.16 60.56 8.16L60.56 8.16Q60.27 8.16 59.99 8.23Q59.71 8.30 59.53 8.48L59.53 8.48Q59.53 8.78 59.51 9.27Q59.49 9.77 59.49 10.42Q59.49 11.06 59.52 11.82Q59.56 12.57 59.68 13.38L59.68 13.38Q59.19 13.38 58.71 13.58Q58.23 13.78 57.93 14.01L57.93 14.01Q57.95 13.75 57.97 13.24Q58.00 12.73 58.02 12.10Q58.03 11.48 58.02 10.82Q58.02 10.16 57.96 9.61Q57.90 9.06 57.80 8.68Q57.69 8.30 57.51 8.25L57.51 8.25Q57.27 8.15 57.04 8.15L57.04 8.15Q56.91 8.15 56.80 8.16L56.80 8.16Q57.27 7.85 57.71 7.60L57.71 7.60Q58.07 7.39 58.45 7.22Q58.83 7.04 59.04 7.04L59.04 7.04Q59.22 7.04 59.32 7.07Q59.42 7.10 59.47 7.21Q59.51 7.32 59.52 7.55Q59.53 7.77 59.53 8.16L59.53 8.16Q60.13 7.62 60.81 7.33Q61.49 7.04 62.09 7.04L62.09 7.04Q62.72 7.04 63.24 7.29Q63.76 7.55 64.13 7.96Q64.50 8.37 64.70 8.90Q64.90 9.44 64.90 10.01ZM71.22 12.49L71.22 12.49Q71.62 12.49 71.98 12.38Q72.34 12.28 72.60 12.14L72.60 12.14Q72.91 11.98 73.18 11.79L73.18 11.79Q72.80 12.42 72.27 12.91L72.27 12.91Q71.82 13.33 71.14 13.67Q70.46 14.01 69.57 14.01L69.57 14.01Q68.92 14.01 68.33 13.79Q67.75 13.57 67.29 13.15Q66.84 12.73 66.57 12.12Q66.30 11.51 66.30 10.75L66.30 10.75Q66.30 10.07 66.52 9.54Q66.74 9.02 67.09 8.62Q67.44 8.23 67.87 7.97Q68.31 7.71 68.73 7.55L68.73 7.55Q70.07 7 70.56 7L70.56 7Q71.08 7 71.46 7.17Q71.85 7.35 72.13 7.56L72.13 7.56Q72.44 7.81 72.67 8.12L72.67 8.12L68.05 9.98Q68.15 10.57 68.33 11.03Q68.52 11.49 68.87 11.82Q69.22 12.14 69.78 12.31Q70.34 12.49 71.22 12.49ZM68.95 7.81L68.95 7.81Q68.75 7.81 68.57 7.92Q68.39 8.02 68.24 8.19Q68.10 8.36 68.02 8.57Q67.94 8.78 67.96 8.99L67.96 8.99Q67.96 9.21 67.96 9.42Q67.97 9.63 68.01 9.84L68.01 9.84L70.36 8.76Q70.22 8.50 70.01 8.29L70.01 8.29Q69.83 8.11 69.57 7.96Q69.30 7.81 68.95 7.81Z"></path></g><!----><g data-v-423bf9ae="" id="a015256c-83be-4f69-aff2-9df570f308ee" transform="matrix(5.484810829162598,0,0,5.484810829162598,-312.15936279296875,-17.846702575683594)" stroke="none" fill="white"><path d="M442.11 100.351l-30.745-62.002a8.54 8.54 0 00-7.651-4.746h-10.352L380.606 8.09a8.538 8.538 0 00-7.638-4.722H127.007a8.54 8.54 0 00-7.639 4.722l-12.757 25.513h-10.35a8.54 8.54 0 00-7.651 4.746l-30.745 62.002a8.541 8.541 0 007.651 12.334h31.843l8.589 62.344h-7.129a5.977 5.977 0 00-5.935 6.704l26.321 215.218a5.979 5.979 0 005.935 5.252h12.105l12.045 87.423a8.54 8.54 0 008.46 7.375h184.472a8.537 8.537 0 008.46-7.375l12.045-87.423h12.105a5.979 5.979 0 005.935-5.252l26.323-215.218a5.98 5.98 0 00-5.936-6.704h-7.13l8.59-62.344h31.843a8.54 8.54 0 007.653-12.334zM334.779 479.919H165.196l-10.707-77.717h190.997l-10.707 77.717zm42.007-304.891H123.19l-8.589-62.344h270.773l-8.588 62.344zm18.418-79.424l-.032-.002H104.803l-.031.002H79.284l22.275-44.921h163.8a8.541 8.541 0 000-17.081H125.708l6.577-13.153h235.406l6.576 13.153h-16.671a8.54 8.54 0 100 17.081h40.819l22.275 44.921h-25.486z"></path></g><!----></svg>